<svg width="23" height="12" viewBox="0 0 23 12" fill="none" xmlns="http://www.w3.org/2000/svg">
<path d="M1.5 5.25C1.08579 5.25 0.75 5.58579 0.75 6C0.75 6.41421 1.08579 6.75 1.5 6.75V5.25ZM22.0303 6.53033C22.3232 6.23744 22.3232 5.76256 22.0303 5.46967L17.2574 0.696699C16.9645 0.403806 16.4896 0.403806 16.1967 0.696699C15.9038 0.989593 15.9038 1.46447 16.1967 1.75736L20.4393 6L16.1967 10.2426C15.9038 10.5355 15.9038 11.0104 16.1967 11.3033C16.4896 11.5962 16.9645 11.5962 17.2574 11.3033L22.0303 6.53033ZM1.5 6.75H21.5V5.25H1.5V6.75Z" fill="#646D95"/>
</svg>
