<svg width="448" height="289" viewBox="0 0 448 289" fill="none" xmlns="http://www.w3.org/2000/svg">
<path opacity="0.0416667" d="M121.155 171.562C161.334 91.9799 177.722 31.7139 129.436 -22.7614C82.0972 -76.1694 -26.4796 -41.923 -37.6192 -116.892C-42.3364 -148.64 -8.54676 -189.343 -12.5942 -221.306C-21.6896 -293.132 -90.4313 -329.09 -193.327 -328.076" stroke="#2C1EF5"/>
<path opacity="0.0833333" d="M119.88 176.586C165.809 101.185 186.792 42.7926 143.744 -15.7951C101.54 -73.2349 -7.94386 -49.1879 -12.8254 -124.727C-14.8926 -156.715 21.6107 -194.063 20.2193 -226.203C17.0924 -298.431 -47.559 -340.496 -148.77 -348.956" stroke="#2C1EF5"/>
<path opacity="0.125" d="M118.016 181.609C169.28 110.782 194.661 54.6046 157.197 -7.59627C120.468 -68.5784 11.0164 -54.6236 12.4098 -130.213C12.9999 -162.223 51.8942 -196.052 53.1601 -228.152C56.005 -300.287 -4.02009 -348.018 -102.688 -365.648" stroke="#2C1EF5"/>
<path opacity="0.166667" d="M115.574 186.578C171.733 120.679 201.29 67.0377 169.711 1.75188C138.751 -62.2548 30.2442 -58.2 37.8866 -133.321C41.123 -165.133 82.0785 -195.313 85.9852 -227.154C94.7644 -298.706 39.8559 -351.616 -55.452 -378.033" stroke="#2C1EF5"/>
<path opacity="0.208333" d="M112.568 191.441C173.162 130.783 206.651 79.9773 181.207 12.1592C156.261 -54.3301 49.5788 -59.9022 63.4019 -134.042C69.2555 -165.438 111.938 -191.869 118.451 -223.234C133.087 -293.719 83.7354 -351.277 -7.44247 -386.029" stroke="#2C1EF5"/>
<path opacity="0.25" d="M109.021 196.148C173.572 141.003 210.729 93.3089 191.617 23.5313C172.88 -44.8792 68.8614 -59.728 88.7547 -132.381C97.179 -163.147 141.252 -185.757 150.319 -216.436C170.696 -285.377 127.288 -347.017 40.9562 -389.583" stroke="#2C1EF5"/>
<path opacity="0.291667" d="M104.956 200.653C172.971 151.248 213.513 106.919 200.88 35.7693C188.495 -33.9861 87.9311 -57.6898 113.743 -128.362C124.674 -158.29 169.802 -177.038 181.355 -206.823C207.317 -273.755 170.183 -338.88 89.3543 -388.681" stroke="#2C1EF5"/>
<path opacity="0.333333" d="M100.401 204.913C171.381 161.433 215.009 120.696 208.946 48.7727C203.001 -21.7413 106.631 -53.8119 138.171 -122.024C151.527 -150.91 197.378 -165.784 211.33 -194.476C242.685 -258.951 212.097 -326.936 137.364 -383.336" stroke="#2C1EF5"/>
<path opacity="0.375" d="M95.3881 208.887C168.826 171.474 215.227 134.531 215.77 62.437C216.302 -8.24413 124.804 -48.1334 161.842 -113.425C177.526 -141.074 223.774 -152.09 240.025 -179.496C276.545 -241.083 252.712 -311.284 184.6 -373.602" stroke="#2C1EF5"/>
<path opacity="0.416667" d="M89.9529 212.538C165.339 181.292 214.189 148.317 221.318 76.6562C228.309 6.39951 142.301 -40.7066 184.57 -102.638C202.469 -128.864 248.796 -136.063 267.229 -162.001C308.651 -220.29 291.722 -292.048 230.682 -359.563" stroke="#2C1EF5"/>
<path opacity="0.458333" d="M84.1331 215.835C160.959 190.814 211.923 161.954 225.567 91.325C238.943 22.0798 158.973 -31.5944 206.172 -89.749C226.159 -114.376 272.257 -117.828 292.74 -142.126C338.77 -196.729 328.83 -269.377 275.239 -341.334" stroke="#2C1EF5"/>
<path opacity="0.5" d="M77.9692 218.748C155.731 199.967 208.469 175.343 228.498 106.335C248.135 38.6785 174.682 -20.8754 226.476 -74.8645C248.409 -97.7273 293.982 -97.5237 316.371 -120.021C366.685 -170.579 363.754 -243.447 317.913 -319.065" stroke="#2C1EF5"/>
<path opacity="0.541667" d="M71.5035 221.254C149.706 208.692 203.871 188.395 230.105 121.581C255.825 56.0769 189.293 -8.63604 245.318 -58.0999C269.043 -79.0464 313.81 -75.3022 337.948 -95.8516C392.192 -142.03 396.229 -214.453 358.357 -292.935" stroke="#2C1EF5"/>
<path opacity="0.583333" d="M64.7802 223.332C142.938 216.927 198.18 201.021 230.387 136.957C261.963 74.1488 202.682 5.02233 262.545 -39.5882C287.895 -58.4794 331.59 -51.3304 357.31 -69.797C415.106 -111.296 426.006 -182.615 396.245 -263.154" stroke="#2C1EF5"/>
<path opacity="0.625" d="M57.8438 224.968C135.485 224.621 191.456 213.143 229.354 152.361C266.509 92.769 214.731 19.9916 278.015 -19.4713C304.814 -36.1827 347.189 -25.7834 374.311 -42.0474C435.259 -78.5961 452.856 -148.171 431.267 -229.958" stroke="#2C1EF5"/>
<path opacity="0.666667" d="M50.7401 226.151C127.409 231.73 183.761 224.689 227.022 167.69C269.434 111.808 225.335 36.1521 291.6 2.09536C319.661 -12.3267 360.486 1.15125 388.822 -12.8053C452.501 -44.1688 476.571 -111.379 463.137 -193.61" stroke="#2C1EF5"/>
<path opacity="0.708333" d="M43.5154 226.874C118.776 238.214 175.164 235.593 223.414 182.848C270.719 131.136 234.398 53.3757 303.184 24.9463C332.313 12.9073 371.377 29.2772 400.734 17.7169C466.705 -8.26155 496.965 -72.5129 491.592 -154.397" stroke="#2C1EF5"/>
<path opacity="0.75" d="M36.2145 227.137C109.651 244.041 165.736 245.796 218.563 197.739C270.354 150.624 241.834 71.5279 312.667 48.9084C342.663 39.3297 379.776 58.3918 409.952 49.3004C477.762 28.87 513.876 -31.8593 516.396 -112.627" stroke="#2C1EF5"/>
<path opacity="0.791667" d="M28.8822 226.942C100.101 249.186 155.553 255.249 212.504 212.274C268.34 170.141 247.571 90.4659 319.962 73.7989C350.618 66.741 385.612 88.2849 416.399 81.718C485.586 66.9609 527.168 10.2803 537.339 -68.6278" stroke="#2C1EF5"/>
<path opacity="0.833333" d="M21.5629 226.296C90.1959 253.629 144.692 263.908 205.283 226.366C264.688 189.559 251.548 110.042 325.001 99.4295C356.106 94.9354 388.832 118.742 420.022 114.738C490.112 105.741 536.729 53.595 554.242 -22.7446" stroke="#2C1EF5"/>
<path opacity="0.875" d="M14.2986 225.211C80.0037 257.359 133.233 271.737 196.95 239.933C259.419 208.752 253.718 130.104 327.728 125.606C359.07 123.702 389.402 149.545 420.782 148.126C491.3 144.936 542.476 97.7656 566.956 24.6632" stroke="#2C1EF5"/>
<path opacity="0.916667" d="M7.12971 223.7C69.5919 260.37 121.255 278.709 187.558 252.9C252.563 227.596 254.045 150.495 328.108 152.132C359.471 152.824 387.305 180.474 418.663 181.643C489.13 184.27 544.351 142.467 575.364 73.2243" stroke="#2C1EF5"/>
<path opacity="0.958333" d="M0.0942501 221.783C59.0269 262.662 108.84 284.804 177.169 265.196C244.159 245.972 252.51 171.059 326.119 178.806C357.29 182.087 382.543 211.309 413.666 215.053C483.606 223.466 542.324 187.371 579.382 122.56" stroke="#2C1EF5"/>
<path d="M-6.77197 219.482C48.3736 264.243 96.0675 290.008 165.845 276.756C234.256 263.763 249.104 191.634 321.757 205.429C352.524 211.27 375.134 241.831 405.812 248.119C474.753 262.249 536.393 232.149 578.96 172.284" stroke="#2C1EF5"/>
</svg>
