<svg width="1440" height="1369" viewBox="0 0 1440 1369" fill="none" xmlns="http://www.w3.org/2000/svg">
<g opacity="0.4">
<mask id="mask0_74_374" style="mask-type:alpha" maskUnits="userSpaceOnUse" x="0" y="0" width="1440" height="502">
<rect width="1440" height="502" fill="#051367"/>
</mask>
<g mask="url(#mask0_74_374)">
<path opacity="0.025641" fill-rule="evenodd" clip-rule="evenodd" d="M296.198 606.877C245.681 531.771 493.396 388.831 557.764 276.271C616.773 173.083 544.587 85.9942 650.979 -13.5238C758.979 -114.545 931.637 -168.407 1079.65 -211.897C1222.06 -253.739 1351.08 -262.644 1468.11 -253.614C1592.76 -243.995 1723.8 -231.701 1769.44 -158.671C1815.91 -84.3211 1794.03 27.9276 1712.75 137.834C1637.51 239.589 1480.9 313.006 1355.79 400.695C1240.99 481.163 1141.27 597.13 1011.34 629.469C881.139 661.878 855.705 556.53 743.891 552.997C605.316 548.62 347.951 683.822 296.198 606.877Z" stroke="url(#paint0_linear_74_374)"/>
<path opacity="0.0512821" fill-rule="evenodd" clip-rule="evenodd" d="M278.636 535.831C235.353 457.336 489.972 338.566 562.386 233.4C628.77 136.991 565.243 44.7599 677.761 -43.8141C791.979 -133.726 965.656 -171.417 1114.32 -201.083C1257.35 -229.626 1384.54 -226.91 1498.48 -207.592C1619.85 -187.014 1747.26 -163.233 1785.94 -87.2159C1825.31 -9.82599 1794.57 98.8166 1705.8 199.862C1623.62 293.413 1464.05 351.8 1334.18 427.053C1215 496.109 1107.66 601.484 977.639 621.776C847.346 642.11 831.151 536.053 721.862 522.615C586.415 505.962 322.979 616.248 278.636 535.831Z" stroke="url(#paint1_linear_74_374)"/>
<path opacity="0.0769231" fill-rule="evenodd" clip-rule="evenodd" d="M267.755 464.595C231.908 383.393 491.139 288.894 570.81 191.658C643.848 102.518 589.321 5.98523 706.883 -71.3442C826.221 -149.842 999.435 -171.601 1147.49 -187.667C1289.93 -203.125 1414.25 -189.178 1524.22 -160.042C1641.36 -129.006 1764.14 -94.277 1795.69 -15.9269C1827.8 63.8386 1788.64 168.193 1693.3 259.92C1605.04 344.843 1443.91 388.25 1310.46 450.913C1188 508.414 1074.11 602.762 945.101 611.24C815.816 619.737 808.792 513.771 702.888 490.843C571.638 462.427 304.479 547.784 267.755 464.595Z" stroke="url(#paint2_linear_74_374)"/>
<path opacity="0.102564" fill-rule="evenodd" clip-rule="evenodd" d="M263.438 393.788C235.166 310.574 496.753 240.232 582.863 151.382C661.804 69.9287 616.538 -30.0461 738.057 -95.9342C861.413 -162.818 1032.73 -169.017 1178.95 -171.82C1319.63 -174.517 1440.12 -149.819 1545.29 -111.41C1657.31 -70.496 1774.55 -25.4447 1798.85 54.5796C1823.59 136.05 1776.52 235.486 1675.54 317.525C1582.05 393.48 1420.75 422.088 1284.91 472.116C1160.26 518.024 1040.91 601.014 913.954 598.013C786.733 595.006 788.74 489.914 687.031 457.983C560.98 418.41 292.403 479.039 263.438 393.788Z" stroke="url(#paint3_linear_74_374)"/>
<path opacity="0.128205" fill-rule="evenodd" clip-rule="evenodd" d="M265.517 324.005C244.895 239.474 506.636 192.973 598.343 112.882C682.415 39.4588 646.591 -63.0853 770.985 -117.438C897.259 -172.611 1065.31 -163.75 1208.54 -153.734C1346.34 -144.097 1462.07 -109.211 1561.67 -62.1416C1667.77 -12.0038 1778.6 42.6695 1795.61 123.708C1812.93 206.209 1758.51 300.153 1652.83 372.227C1555 438.956 1394.85 453.068 1257.79 490.529C1132.02 524.905 1008.3 596.311 884.408 582.255C760.253 568.17 771.089 464.711 674.324 424.334C554.401 374.292 286.644 410.604 265.517 324.005Z" stroke="url(#paint4_linear_74_374)"/>
<path opacity="0.153846" fill-rule="evenodd" clip-rule="evenodd" d="M273.767 255.815C260.808 170.661 520.576 147.486 617.023 76.4471C705.439 11.3224 679.155 -92.9139 805.357 -135.736C933.467 -179.205 1096.96 -155.901 1236.09 -133.609C1369.94 -112.162 1480.09 -67.7248 1573.42 -12.672C1672.84 45.9702 1776.52 109.497 1786.24 190.892C1796.14 273.758 1734.96 361.691 1625.55 423.613C1524.25 480.943 1366.52 480.98 1229.38 506.047C1103.54 529.048 976.542 588.748 856.653 564.148C736.511 539.495 755.907 438.401 664.772 390.193C551.825 330.447 287.044 343.053 273.767 255.815Z" stroke="url(#paint5_linear_74_374)"/>
<path opacity="0.179487" fill-rule="evenodd" clip-rule="evenodd" d="M287.914 189.759C282.567 104.668 538.327 104.119 638.648 42.3424C730.616 -14.2908 713.89 -119.345 840.856 -150.739C969.74 -182.607 1127.46 -145.586 1261.46 -111.655C1390.38 -79.0103 1494.16 -25.7293 1580.62 36.5777C1672.71 102.947 1768.53 174.499 1771.04 255.605C1773.59 338.177 1706.27 419.641 1594.07 471.314C1490.18 519.154 1336.1 505.647 1199.97 518.591C1075.06 530.469 945.868 578.439 830.861 543.884C715.61 509.256 743.24 411.224 658.35 355.856C553.142 287.236 293.392 276.932 287.914 189.759Z" stroke="url(#paint6_linear_74_374)"/>
<path opacity="0.205128" fill-rule="evenodd" clip-rule="evenodd" d="M307.638 126.337C309.793 41.9817 559.616 63.1838 662.945 10.8001C757.67 -37.2223 750.443 -142.229 877.16 -162.39C1005.79 -182.855 1156.61 -132.943 1284.53 -88.0948C1407.61 -44.9462 1504.34 16.4131 1583.37 85.1987C1667.55 158.469 1754.93 237.167 1750.35 317.352C1745.69 398.987 1672.88 473.588 1558.82 514.999C1453.22 553.338 1303.91 526.921 1169.85 528.11C1046.83 529.202 916.502 565.518 807.181 521.669C697.629 477.727 733.111 383.415 655.007 321.604C558.21 245 305.431 212.756 307.638 126.337Z" stroke="url(#paint7_linear_74_374)"/>
<path opacity="0.230769" fill-rule="evenodd" clip-rule="evenodd" d="M332.579 66.0137C342.066 -16.9524 584.145 24.9663 689.623 -17.9736C786.32 -57.3384 788.453 -161.45 913.948 -170.66C1041.34 -180.01 1184.23 -118.123 1305.22 -63.1529C1421.61 -10.2663 1510.7 58.3541 1581.85 132.804C1657.63 212.109 1736.06 297.032 1724.57 375.685C1712.87 455.758 1635.25 523.166 1520.26 554.387C1413.79 583.292 1270.31 544.69 1139.3 534.583C1019.09 525.308 888.654 550.138 785.747 497.719C682.623 445.188 725.523 355.211 654.67 287.714C566.859 204.061 322.86 151.011 332.579 66.0137Z" stroke="url(#paint8_linear_74_374)"/>
<path opacity="0.25641" fill-rule="evenodd" clip-rule="evenodd" d="M362.336 9.20938C378.93 -71.7386 611.594 -10.2844 718.377 -43.8063C816.269 -74.5372 827.552 -176.93 950.899 -175.555C1076.11 -174.159 1210.16 -101.29 1323.43 -37.0611C1432.41 24.7341 1513.34 99.7562 1576.22 179.028C1643.21 263.469 1712.29 353.665 1694.12 430.196C1675.63 508.11 1593.88 568.057 1478.84 589.241C1372.33 608.854 1235.65 558.877 1108.63 538.011C992.063 518.864 862.515 532.467 766.668 472.255C670.618 411.916 720.457 326.843 657.239 254.445C578.891 164.72 345.337 92.1389 362.336 9.20938Z" stroke="url(#paint9_linear_74_374)"/>
<path opacity="0.282051" fill-rule="evenodd" clip-rule="evenodd" d="M396.48 -43.7026C419.901 -122.032 641.623 -42.3537 748.888 -66.5573C847.222 -88.7457 867.368 -188.626 987.697 -177.107C1109.84 -165.414 1234.25 -82.6244 1339.14 -10.0532C1440.05 59.7677 1512.38 140.299 1566.73 223.528C1624.61 312.184 1684.03 406.679 1659.46 480.53C1634.45 555.715 1549.28 607.998 1435.05 619.374C1329.3 629.906 1200.28 569.438 1078.1 538.427C965.98 509.969 838.261 512.686 750.033 445.506C661.618 378.184 717.871 298.534 662.593 222.045C594.084 127.25 372.485 36.5439 396.48 -43.7026Z" stroke="url(#paint10_linear_74_374)"/>
<path opacity="0.307692" fill-rule="evenodd" clip-rule="evenodd" d="M434.547 -92.3948C464.467 -167.538 673.877 -71.0613 780.827 -86.1168C878.873 -99.9189 907.532 -196.529 1024.03 -175.378C1142.29 -153.906 1256.37 -62.3111 1352.29 17.6388C1444.58 94.5588 1508 179.682 1553.59 265.992C1602.17 357.929 1651.71 455.735 1621.07 526.379C1589.88 598.299 1501.99 642.781 1389.39 644.649C1285.14 646.379 1164.56 576.366 1048 535.888C941.043 498.743 816.045 490.993 735.907 417.706C655.598 344.264 717.706 270.5 670.588 190.746C612.193 91.9026 403.895 -15.4125 434.547 -92.3948Z" stroke="url(#paint11_linear_74_374)"/>
<path opacity="0.333333" fill-rule="evenodd" clip-rule="evenodd" d="M476.059 -136.592C512.102 -208.019 707.994 -96.2668 813.867 -102.411C910.925 -108.044 947.681 -200.669 1059.61 -170.459C1173.22 -139.792 1276.4 -40.5485 1362.89 45.7818C1446.11 128.84 1500.36 217.625 1537.1 306.135C1576.24 400.415 1615.79 500.541 1579.45 567.488C1542.46 635.644 1452.54 672.249 1342.35 664.976C1240.32 658.243 1128.83 579.684 1018.6 530.475C917.45 485.32 796.007 467.591 724.336 389.086C652.512 310.415 719.884 242.948 681.066 160.758C632.957 58.8959 439.133 -63.4177 476.059 -136.592Z" stroke="url(#paint12_linear_74_374)"/>
<path opacity="0.358974" fill-rule="evenodd" clip-rule="evenodd" d="M520.525 -176.064C562.274 -243.284 743.611 -117.859 847.683 -115.391C943.089 -113.129 987.467 -201.102 1094.14 -162.461C1202.43 -123.236 1294.26 -17.5333 1370.95 74.1547C1444.74 162.368 1489.7 253.877 1517.55 343.71C1547.22 439.4 1576.76 540.861 1535.14 603.662C1492.76 667.597 1401.51 696.309 1294.43 680.324C1195.3 665.524 1093.46 579.458 990.17 522.304C895.391 469.857 778.272 442.705 715.354 359.889C652.303 276.896 724.321 216.078 693.859 132.281C656.107 28.4287 477.754 -107.198 520.525 -176.064Z" stroke="url(#paint13_linear_74_374)"/>
<path opacity="0.384615" fill-rule="evenodd" clip-rule="evenodd" d="M567.412 -210.65C614.411 -273.219 780.332 -135.785 881.921 -125.061C975.052 -115.229 1026.52 -197.934 1127.35 -151.539C1229.69 -104.443 1309.85 6.51339 1376.49 102.522C1440.6 194.893 1476.2 288.194 1495.23 378.486C1515.5 474.666 1535.11 576.493 1488.63 634.74C1441.32 694.038 1349.42 714.906 1246.13 690.689C1150.5 668.269 1058.74 575.765 962.93 511.49C875.007 452.51 762.914 416.544 708.943 330.332C654.858 243.937 730.883 190.059 708.755 105.476C681.33 0.649076 519.263 -146.548 567.412 -210.65Z" stroke="url(#paint14_linear_74_374)"/>
<path opacity="0.410256" fill-rule="evenodd" clip-rule="evenodd" d="M616.211 -240.224C667.97 -297.745 817.791 -150.01 916.265 -131.436C1006.54 -114.41 1064.53 -191.288 1158.97 -137.854C1254.85 -83.6123 1323.14 31.3859 1379.56 130.676C1433.85 226.203 1460.14 320.375 1470.47 410.284C1481.48 506.056 1491.33 607.304 1440.48 660.635C1388.71 714.928 1296.82 728.054 1197.92 696.137C1106.36 666.587 1025.02 568.732 937.119 498.192C856.457 433.462 750.017 389.343 705.095 300.651C660.078 211.771 739.457 165.066 725.56 80.4994C708.337 -24.3069 563.185 -181.295 616.211 -240.224Z" stroke="url(#paint15_linear_74_374)"/>
<path opacity="0.435897" fill-rule="evenodd" clip-rule="evenodd" d="M666.403 -264.722C722.404 -316.846 855.618 -160.542 950.395 -134.574C1037.28 -110.768 1101.16 -181.322 1188.79 -121.595C1277.74 -60.965 1334.08 56.8695 1380.24 158.407C1424.65 256.097 1441.75 350.24 1443.61 438.951C1445.59 533.447 1445.93 633.205 1391.21 681.304C1335.5 730.273 1244.26 735.816 1150.29 696.77C1063.29 660.619 992.593 558.509 912.951 482.579C839.868 412.903 739.635 361.331 703.773 271.066C667.835 180.609 749.904 141.249 744.061 57.4781C736.82 -46.3423 609.031 -211.321 666.403 -264.722Z" stroke="url(#paint16_linear_74_374)"/>
<path opacity="0.461538" fill-rule="evenodd" clip-rule="evenodd" d="M717.471 -284.126C777.171 -330.558 893.449 -167.424 984.003 -134.557C1067.02 -104.426 1136.14 -168.219 1216.58 -102.968C1298.24 -36.7307 1342.67 82.7527 1378.61 185.521C1413.19 284.395 1421.31 377.64 1414.99 464.374C1408.25 556.764 1399.43 654.159 1341.35 696.763C1282.23 740.138 1192.25 738.306 1103.69 692.737C1021.69 650.548 961.745 545.272 890.62 464.841C825.353 391.033 731.799 332.741 704.921 241.792C677.986 150.651 762.076 118.747 764.038 36.5187C766.47 -65.3894 656.309 -236.559 717.471 -284.126Z" stroke="url(#paint17_linear_74_374)"/>
<path opacity="0.487179" fill-rule="evenodd" clip-rule="evenodd" d="M768.904 -298.477C831.743 -338.971 930.929 -170.74 1016.79 -131.501C1095.5 -95.5292 1169.18 -152.193 1242.15 -82.2015C1316.23 -11.1522 1348.9 108.822 1374.77 211.831C1399.65 310.937 1399.09 402.451 1384.95 486.471C1369.89 575.968 1352.32 670.178 1291.42 707.073C1229.43 744.634 1141.29 735.686 1058.55 684.228C981.939 636.587 932.738 529.223 870.296 445.179C812.997 368.058 726.518 303.804 708.463 213.034C690.369 122.072 775.814 97.676 785.264 17.7007C796.976 -81.4156 704.528 -256.991 768.904 -298.477Z" stroke="url(#paint18_linear_74_374)"/>
<path opacity="0.512821" fill-rule="evenodd" clip-rule="evenodd" d="M820.211 -307.853C885.612 -342.222 967.722 -170.597 1048.48 -125.544C1122.52 -84.2421 1200.03 -133.476 1265.34 -59.5328C1331.63 15.5271 1352.8 134.873 1368.83 237.169C1384.25 335.588 1375.38 424.584 1353.84 505.2C1330.91 591.072 1305.08 681.328 1241.91 712.349C1177.61 743.931 1091.86 728.168 1015.27 671.476C944.368 618.989 905.814 510.588 852.133 423.817C802.874 344.192 723.784 274.752 714.309 184.99C704.814 95.0379 790.954 78.143 807.512 1.08647C828.033 -94.4125 753.209 -272.643 820.211 -307.853Z" stroke="url(#paint19_linear_74_374)"/>
<path opacity="0.538462" fill-rule="evenodd" clip-rule="evenodd" d="M870.912 -312.393C938.292 -340.501 1003.5 -167.144 1078.81 -116.856C1147.85 -70.7553 1228.47 -112.326 1285.99 -35.2203C1344.37 43.0503 1354.4 160.7 1360.93 261.372C1367.21 358.228 1350.45 443.968 1322.01 520.545C1291.72 602.116 1258.19 687.711 1193.31 712.747C1127.26 738.236 1044.4 716 974.249 654.743C909.297 598.029 881.187 489.608 836.259 400.978C795.03 319.648 723.565 245.804 722.353 157.838C721.139 69.6859 807.324 60.2276 830.552 -13.2936C859.338 -104.411 801.883 -283.598 870.912 -312.393Z" stroke="url(#paint20_linear_74_374)"/>
<path opacity="0.564103" fill-rule="evenodd" clip-rule="evenodd" d="M920.554 -312.272C989.324 -334.039 1037.97 -160.552 1107.54 -105.625C1171.31 -55.2709 1254.31 -89.0165 1303.98 -9.52669C1354.41 71.1641 1353.77 186.109 1351.2 284.298C1348.73 378.766 1324.59 460.569 1289.79 532.532C1252.72 609.187 1212.1 689.482 1146.06 708.474C1078.83 727.809 999.337 699.477 935.817 634.329C877.008 574.012 859.046 466.545 822.777 376.903C789.495 294.645 725.81 217.18 732.473 131.75C739.15 46.1391 824.749 43.9979 854.156 -25.4255C890.6 -111.464 850.099 -289.973 920.554 -312.272Z" stroke="url(#paint21_linear_74_374)"/>
<path opacity="0.589744" fill-rule="evenodd" clip-rule="evenodd" d="M968.709 -307.709C1038.28 -323.109 1070.85 -151.023 1134.45 -92.0607C1192.76 -38.0076 1277.38 -63.8357 1319.24 17.2762C1361.74 99.6137 1350.98 210.913 1339.8 305.819C1329.04 397.129 1298.08 474.38 1257.5 541.216C1214.27 612.409 1167.24 686.836 1100.59 699.773C1032.75 712.945 957.039 678.926 900.29 610.562C847.75 547.269 839.551 441.676 811.771 351.838C786.279 269.399 730.454 189.09 744.539 106.882C758.653 24.4991 843.054 29.5025 878.104 -35.3192C921.541 -115.655 897.43 -291.932 968.709 -307.709Z" stroke="url(#paint22_linear_74_374)"/>
<path opacity="0.615385" fill-rule="evenodd" clip-rule="evenodd" d="M1014.98 -298.959C1084.78 -308.02 1101.89 -138.779 1159.35 -76.3903C1212.03 -19.196 1297.55 -37.0835 1331.7 44.9123C1366.37 128.147 1346.12 234.935 1326.87 325.825C1308.36 413.272 1271.19 485.42 1225.46 546.683C1176.74 611.94 1124 680.005 1057.3 686.93C989.392 693.979 917.848 654.709 867.941 583.798C821.735 518.147 822.834 415.289 803.296 326.032C785.368 244.127 737.407 161.735 758.403 83.3748C779.443 4.84789 862.06 16.7732 902.176 -43.005C951.893 -117.09 943.47 -289.676 1014.98 -298.959Z" stroke="url(#paint23_linear_74_374)"/>
<path opacity="0.641026" fill-rule="evenodd" clip-rule="evenodd" d="M1059 -286.315C1128.45 -289.116 1130.85 -124.068 1182.07 -58.859C1229.03 0.920682 1314.7 -9.07146 1341.31 73.1002C1368.32 156.513 1339.29 258.007 1312.6 344.219C1286.92 427.165 1244.19 493.732 1193.97 549.046C1140.46 607.966 1082.75 669.256 1016.53 670.257C949.111 671.276 882.062 627.212 839.004 554.411C799.139 487.009 808.996 387.68 797.386 299.737C786.732 219.037 746.568 135.305 773.913 61.353C801.316 -12.7556 881.593 5.82205 926.167 -48.5361C981.409 -115.904 987.844 -283.444 1059 -286.315Z" stroke="url(#paint24_linear_74_374)"/>
<path opacity="0.666667" fill-rule="evenodd" clip-rule="evenodd" d="M1100.44 -270.099C1169 -266.771 1157.55 -107.153 1202.48 -39.7225C1243.66 22.0938 1328.78 19.8855 1348.07 101.561C1367.66 184.471 1330.61 279.975 1297.14 360.924C1264.94 438.805 1217.34 499.386 1163.3 548.447C1105.73 600.706 1043.84 654.889 978.608 650.103C912.202 645.231 849.935 596.848 813.671 522.793C780.098 454.231 798.106 359.152 794.046 273.205C790.32 194.336 757.818 109.975 790.907 40.9258C824.066 -28.2704 901.479 -3.35385 949.876 -51.9829C1009.86 -112.251 1030.21 -273.508 1100.44 -270.099Z" stroke="url(#paint25_linear_74_374)"/>
<path opacity="0.692308" fill-rule="evenodd" clip-rule="evenodd" d="M1139.02 -250.659C1206.15 -241.38 1181.8 -88.3125 1220.44 -19.2459C1255.87 44.0705 1339.72 49.4701 1352 130.02C1364.46 211.787 1320.2 300.699 1280.66 375.878C1242.62 448.208 1190.86 502.475 1133.71 545.052C1072.84 590.405 1007.54 637.232 943.809 626.84C878.924 616.261 821.675 564.046 792.095 489.352C764.708 420.198 790.207 330.01 793.261 246.686C796.064 170.223 771.027 85.9129 809.217 22.1866C847.489 -41.6751 921.552 -10.7728 973.117 -53.4325C1037.02 -106.302 1070.25 -260.164 1139.02 -250.659Z" stroke="url(#paint26_linear_74_374)"/>
<path opacity="0.717949" fill-rule="evenodd" clip-rule="evenodd" d="M1174.49 -228.367C1239.67 -213.361 1203.49 -67.8395 1235.9 2.29614C1265.61 66.5925 1347.54 79.3628 1353.14 158.204C1358.82 238.236 1308.22 320.049 1263.35 389.036C1220.18 455.408 1164.99 503.112 1105.44 539.049C1042.02 577.328 974.129 616.632 912.364 600.859C849.483 584.8 797.442 529.249 774.38 454.5C753.029 385.294 785.308 300.558 794.991 220.422C803.877 146.885 786.049 63.2649 828.671 5.20908C871.383 -52.9701 941.649 -16.4715 995.718 -52.9913C1062.73 -98.2517 1107.71 -243.74 1174.49 -228.367Z" stroke="url(#paint27_linear_74_374)"/>
<path opacity="0.74359" fill-rule="evenodd" clip-rule="evenodd" d="M1206.63 -203.611C1269.4 -183.145 1222.48 -46.0314 1248.78 24.6287C1272.88 89.4058 1352.25 109.251 1351.55 185.851C1350.85 263.607 1294.79 337.916 1245.37 400.372C1197.82 460.462 1139.93 501.432 1078.71 530.646C1013.48 561.764 943.809 593.462 884.459 572.569C824.038 551.299 777.347 492.912 760.589 418.658C745.073 349.911 783.384 271.1 799.169 194.653C813.654 124.502 802.725 42.1678 849.088 -9.94613C895.55 -62.1707 961.612 -20.4969 1017.51 -50.7765C1086.8 -88.3032 1142.33 -224.577 1206.63 -203.611Z" stroke="url(#paint28_linear_74_374)"/>
<path opacity="0.769231" fill-rule="evenodd" clip-rule="evenodd" d="M1235.3 -176.795C1295.2 -151.175 1238.74 -23.1964 1259.06 47.4706C1277.7 112.254 1353.9 138.825 1347.34 212.705C1340.68 287.7 1280.09 354.198 1226.9 409.873C1175.72 463.438 1115.89 497.581 1053.69 520.063C987.429 544.011 916.764 568.102 860.247 542.389C802.708 516.212 761.463 455.488 750.749 382.241C740.829 314.428 784.393 241.927 805.717 169.604C825.284 103.238 820.899 22.7364 870.301 -23.2405C919.807 -69.3151 981.305 -22.9148 1038.37 -46.9232C1109.1 -76.6776 1173.94 -203.041 1235.3 -176.795Z" stroke="url(#paint29_linear_74_374)"/>
<path opacity="0.794872" fill-rule="evenodd" clip-rule="evenodd" d="M1260.38 -148.327C1316.99 -117.897 1252.2 0.360912 1266.75 70.5481C1280.1 134.892 1352.58 167.789 1340.62 238.527C1328.48 310.335 1264.26 368.815 1208.1 417.544C1154.06 464.426 1093.03 491.728 1030.55 507.54C963.993 524.383 893.123 540.947 839.819 510.747C785.553 480.002 749.805 417.433 744.835 345.667C740.234 279.224 788.255 213.329 814.526 145.495C838.634 83.2477 840.394 5.07427 892.128 -34.647C943.971 -74.4527 1000.59 -23.7979 1058.16 -41.5719C1129.52 -63.6 1202.38 -179.503 1260.38 -148.327Z" stroke="url(#paint30_linear_74_374)"/>
<path opacity="0.820513" fill-rule="evenodd" clip-rule="evenodd" d="M1281.79 -118.624C1334.74 -83.7579 1262.86 24.3336 1271.88 93.5883C1280.16 157.077 1348.39 195.854 1331.52 263.091C1314.4 331.343 1247.49 381.699 1189.14 423.404C1133 463.528 1071.49 484.048 1009.41 493.323C943.285 503.202 872.972 512.395 823.228 478.07C772.586 443.125 742.343 379.197 742.783 309.338C743.191 244.661 794.861 185.578 825.47 122.527C853.558 64.6693 861.032 -10.7358 914.394 -44.1585C967.869 -77.6521 1019.34 -23.2334 1076.78 -34.8762C1147.97 -49.3055 1227.54 -154.344 1281.79 -118.624Z" stroke="url(#paint31_linear_74_374)"/>
<path opacity="0.846154" fill-rule="evenodd" clip-rule="evenodd" d="M1299.5 -88.0979C1348.46 -49.1991 1270.75 48.422 1274.51 116.328C1277.95 178.581 1341.48 222.752 1320.21 286.185C1298.63 350.577 1229.93 392.803 1170.18 427.488C1112.7 460.858 1051.41 474.733 990.385 477.668C925.382 480.794 856.357 482.849 810.482 444.786C763.777 406.036 739.004 341.22 744.49 273.65C749.57 211.092 804.082 158.936 838.406 100.892C869.903 47.6274 882.63 -24.6261 936.929 -51.781C991.343 -78.9936 1037.44 -21.3156 1094.13 -26.9938C1164.38 -34.0309 1249.35 -127.949 1299.5 -88.0979Z" stroke="url(#paint32_linear_74_374)"/>
<path opacity="0.871795" fill-rule="evenodd" clip-rule="evenodd" d="M1313.54 -57.1585C1358.2 -14.655 1275.92 72.331 1274.71 138.512C1273.6 199.184 1332.01 248.227 1306.87 307.618C1281.35 367.906 1211.75 402.088 1151.37 429.841C1093.28 456.543 1032.89 463.975 973.54 460.831C910.32 457.483 843.279 452.701 801.54 411.31C759.046 369.172 739.669 303.923 749.814 238.975C759.207 178.844 815.763 133.646 853.175 80.7588C887.505 32.2274 905.001 -36.5497 959.565 -57.5391C1014.24 -78.5732 1054.79 -18.1503 1110.14 -18.0908C1178.73 -18.017 1267.78 -100.702 1313.54 -57.1585Z" stroke="url(#paint33_linear_74_374)"/>
<path opacity="0.897436" fill-rule="evenodd" clip-rule="evenodd" d="M1323.96 -26.2028C1364.08 19.4573 1278.46 95.7799 1272.6 159.901C1267.23 218.684 1320.17 272.047 1291.68 327.217C1262.76 383.22 1193.13 409.539 1132.85 430.526C1074.86 450.718 1016.01 451.978 958.921 443.076C898.104 433.593 833.699 422.342 796.322 378.051C758.269 332.959 744.177 267.714 758.575 205.671C771.905 148.23 829.725 109.933 869.6 62.285C906.192 18.5616 927.96 -46.4734 982.14 -61.4683C1036.44 -76.4949 1071.32 -13.8466 1124.76 -8.33284C1191 -1.4994 1282.85 -72.9806 1323.96 -26.2028Z" stroke="url(#paint34_linear_74_374)"/>
<path opacity="0.923077" fill-rule="evenodd" clip-rule="evenodd" d="M1330.86 4.38404C1366.24 52.7371 1278.47 118.5 1268.31 180.268C1259 236.892 1306.16 293.999 1274.85 344.831C1243.08 396.431 1174.23 415.153 1114.76 429.613C1057.54 443.525 1000.84 438.947 946.542 424.66C888.703 409.441 827.537 392.149 794.705 345.398C761.279 297.802 752.328 232.974 770.56 174.07C787.44 119.534 845.769 88.0009 887.496 45.6061C925.785 6.70279 951.319 -54.3838 1004.5 -63.6193C1057.8 -72.8744 1086.93 -8.52082 1137.96 2.11158C1201.2 15.2887 1294.61 -45.1526 1330.86 4.38404Z" stroke="url(#paint35_linear_74_374)"/>
<path opacity="0.948718" fill-rule="evenodd" clip-rule="evenodd" d="M1334.37 34.2289C1364.85 84.7999 1276.1 140.233 1261.99 199.396C1249.05 253.634 1290.2 313.889 1256.6 360.324C1222.51 407.461 1155.22 418.935 1097.21 427.177C1041.41 435.108 987.401 425.079 936.387 405.83C882.048 385.325 824.667 362.475 796.521 313.715C767.866 264.073 763.881 200.051 785.521 144.469C805.555 93.0094 863.675 68.025 906.656 30.8308C946.098 -3.30009 974.888 -60.2906 1026.5 -64.0622C1078.22 -67.8418 1101.58 -2.29953 1149.71 13.0684C1209.37 32.1144 1303.15 -17.5799 1334.37 34.2289Z" stroke="url(#paint36_linear_74_374)"/>
<path opacity="0.974359" fill-rule="evenodd" clip-rule="evenodd" d="M1334.69 62.9996C1360.14 115.307 1271.51 160.757 1253.82 217.11C1237.6 268.771 1272.54 331.564 1237.17 373.603C1201.27 416.276 1136.26 420.923 1080.33 423.322C1026.52 425.63 975.721 410.59 928.431 386.844C878.058 361.551 824.951 333.674 801.586 283.359C777.8 232.136 778.577 169.282 803.197 117.156C825.991 68.8968 883.225 50.1748 926.889 18.0667C966.958 -11.397 998.5 -64.2011 1048.01 -62.8593C1097.62 -61.5148 1115.21 4.7074 1160.04 24.3856C1215.59 48.7735 1308.61 9.41225 1334.69 62.9996Z" stroke="url(#paint37_linear_74_374)"/>
<path fill-rule="evenodd" clip-rule="evenodd" d="M1332.01 90.3712C1352.38 143.93 1264.89 179.855 1243.99 233.233C1224.83 282.167 1253.44 346.883 1216.79 384.579C1179.59 422.843 1117.5 421.155 1064.21 418.14C1012.94 415.239 965.787 395.673 922.601 367.935C876.6 338.389 828.191 306.056 809.662 254.645C790.799 202.305 796.111 140.953 823.287 92.3694C848.447 47.3897 904.167 34.577 947.974 7.38189C988.173 -17.5734 1021.97 -66.1562 1068.89 -60.1012C1115.91 -54.0333 1127.8 12.3715 1168.94 35.8981C1219.93 65.0554 1311.14 35.5017 1332.01 90.3712Z" stroke="url(#paint38_linear_74_374)"/>
</g>
</g>
<defs>
<linearGradient id="paint0_linear_74_374" x1="285.209" y1="586.307" x2="1759.1" y2="-179.578" gradientUnits="userSpaceOnUse">
<stop stop-color="#0047FF"/>
<stop offset="1" stop-color="#051367"/>
</linearGradient>
<linearGradient id="paint1_linear_74_374" x1="269.572" y1="514.586" x2="1777.54" y2="-108.736" gradientUnits="userSpaceOnUse">
<stop stop-color="#0047FF"/>
<stop offset="1" stop-color="#051367"/>
</linearGradient>
<linearGradient id="paint2_linear_74_374" x1="260.648" y1="442.852" x2="1789.26" y2="-37.8812" gradientUnits="userSpaceOnUse">
<stop stop-color="#0047FF"/>
<stop offset="1" stop-color="#051367"/>
</linearGradient>
<linearGradient id="paint3_linear_74_374" x1="258.306" y1="371.726" x2="1794.39" y2="32.3681" gradientUnits="userSpaceOnUse">
<stop stop-color="#0047FF"/>
<stop offset="1" stop-color="#051367"/>
</linearGradient>
<linearGradient id="paint4_linear_74_374" x1="262.361" y1="301.8" x2="1793.13" y2="101.415" gradientUnits="userSpaceOnUse">
<stop stop-color="#0047FF"/>
<stop offset="1" stop-color="#051367"/>
</linearGradient>
<linearGradient id="paint5_linear_74_374" x1="272.573" y1="233.643" x2="1785.72" y2="168.692" gradientUnits="userSpaceOnUse">
<stop stop-color="#0047FF"/>
<stop offset="1" stop-color="#051367"/>
</linearGradient>
<linearGradient id="paint6_linear_74_374" x1="288.652" y1="167.79" x2="1772.43" y2="233.666" gradientUnits="userSpaceOnUse">
<stop stop-color="#0047FF"/>
<stop offset="1" stop-color="#051367"/>
</linearGradient>
<linearGradient id="paint7_linear_74_374" x1="310.263" y1="104.738" x2="1753.61" y2="295.838" gradientUnits="userSpaceOnUse">
<stop stop-color="#0047FF"/>
<stop offset="1" stop-color="#051367"/>
</linearGradient>
<linearGradient id="paint8_linear_74_374" x1="337.032" y1="44.9453" x2="1729.64" y2="354.753" gradientUnits="userSpaceOnUse">
<stop stop-color="#0047FF"/>
<stop offset="1" stop-color="#051367"/>
</linearGradient>
<linearGradient id="paint9_linear_74_374" x1="368.546" y1="-11.1764" x2="1700.92" y2="409.996" gradientUnits="userSpaceOnUse">
<stop stop-color="#0047FF"/>
<stop offset="1" stop-color="#051367"/>
</linearGradient>
<linearGradient id="paint10_linear_74_374" x1="404.361" y1="-63.2616" x2="1667.9" y2="461.202" gradientUnits="userSpaceOnUse">
<stop stop-color="#0047FF"/>
<stop offset="1" stop-color="#051367"/>
</linearGradient>
<linearGradient id="paint11_linear_74_374" x1="444.004" y1="-110.992" x2="1631.05" y2="508.054" gradientUnits="userSpaceOnUse">
<stop stop-color="#0047FF"/>
<stop offset="1" stop-color="#051367"/>
</linearGradient>
<linearGradient id="paint12_linear_74_374" x1="486.985" y1="-154.104" x2="1590.87" y2="550.287" gradientUnits="userSpaceOnUse">
<stop stop-color="#0047FF"/>
<stop offset="1" stop-color="#051367"/>
</linearGradient>
<linearGradient id="paint13_linear_74_374" x1="532.803" y1="-192.377" x2="1547.86" y2="587.693" gradientUnits="userSpaceOnUse">
<stop stop-color="#0047FF"/>
<stop offset="1" stop-color="#051367"/>
</linearGradient>
<linearGradient id="paint14_linear_74_374" x1="580.917" y1="-225.663" x2="1502.54" y2="620.099" gradientUnits="userSpaceOnUse">
<stop stop-color="#0047FF"/>
<stop offset="1" stop-color="#051367"/>
</linearGradient>
<linearGradient id="paint15_linear_74_374" x1="630.812" y1="-253.849" x2="1455.44" y2="647.407" gradientUnits="userSpaceOnUse">
<stop stop-color="#0047FF"/>
<stop offset="1" stop-color="#051367"/>
</linearGradient>
<linearGradient id="paint16_linear_74_374" x1="681.961" y1="-276.882" x2="1407.09" y2="669.561" gradientUnits="userSpaceOnUse">
<stop stop-color="#0047FF"/>
<stop offset="1" stop-color="#051367"/>
</linearGradient>
<linearGradient id="paint17_linear_74_374" x1="733.844" y1="-294.761" x2="1358" y2="686.561" gradientUnits="userSpaceOnUse">
<stop stop-color="#0047FF"/>
<stop offset="1" stop-color="#051367"/>
</linearGradient>
<linearGradient id="paint18_linear_74_374" x1="785.946" y1="-307.536" x2="1308.69" y2="698.456" gradientUnits="userSpaceOnUse">
<stop stop-color="#0047FF"/>
<stop offset="1" stop-color="#051367"/>
</linearGradient>
<linearGradient id="paint19_linear_74_374" x1="837.772" y1="-315.303" x2="1259.66" y2="705.348" gradientUnits="userSpaceOnUse">
<stop stop-color="#0047FF"/>
<stop offset="1" stop-color="#051367"/>
</linearGradient>
<linearGradient id="paint20_linear_74_374" x1="888.844" y1="-318.213" x2="1211.38" y2="707.38" gradientUnits="userSpaceOnUse">
<stop stop-color="#0047FF"/>
<stop offset="1" stop-color="#051367"/>
</linearGradient>
<linearGradient id="paint21_linear_74_374" x1="938.708" y1="-316.455" x2="1164.31" y2="704.742" gradientUnits="userSpaceOnUse">
<stop stop-color="#0047FF"/>
<stop offset="1" stop-color="#051367"/>
</linearGradient>
<linearGradient id="paint22_linear_74_374" x1="986.937" y1="-310.259" x2="1118.88" y2="697.667" gradientUnits="userSpaceOnUse">
<stop stop-color="#0047FF"/>
<stop offset="1" stop-color="#051367"/>
</linearGradient>
<linearGradient id="paint23_linear_74_374" x1="1033.14" y1="-299.896" x2="1075.47" y2="686.427" gradientUnits="userSpaceOnUse">
<stop stop-color="#0047FF"/>
<stop offset="1" stop-color="#051367"/>
</linearGradient>
<linearGradient id="paint24_linear_74_374" x1="1076.95" y1="-285.671" x2="1034.46" y2="671.322" gradientUnits="userSpaceOnUse">
<stop stop-color="#0047FF"/>
<stop offset="1" stop-color="#051367"/>
</linearGradient>
<linearGradient id="paint25_linear_74_374" x1="1118.04" y1="-267.918" x2="996.156" y2="652.69" gradientUnits="userSpaceOnUse">
<stop stop-color="#0047FF"/>
<stop offset="1" stop-color="#051367"/>
</linearGradient>
<linearGradient id="paint26_linear_74_374" x1="1156.15" y1="-246.996" x2="960.848" y2="630.889" gradientUnits="userSpaceOnUse">
<stop stop-color="#0047FF"/>
<stop offset="1" stop-color="#051367"/>
</linearGradient>
<linearGradient id="paint27_linear_74_374" x1="1191.01" y1="-223.289" x2="928.775" y2="606.302" gradientUnits="userSpaceOnUse">
<stop stop-color="#0047FF"/>
<stop offset="1" stop-color="#051367"/>
</linearGradient>
<linearGradient id="paint28_linear_74_374" x1="1222.45" y1="-197.193" x2="900.13" y2="579.329" gradientUnits="userSpaceOnUse">
<stop stop-color="#0047FF"/>
<stop offset="1" stop-color="#051367"/>
</linearGradient>
<linearGradient id="paint29_linear_74_374" x1="1250.3" y1="-169.122" x2="875.075" y2="550.379" gradientUnits="userSpaceOnUse">
<stop stop-color="#0047FF"/>
<stop offset="1" stop-color="#051367"/>
</linearGradient>
<linearGradient id="paint30_linear_74_374" x1="1274.45" y1="-139.493" x2="853.711" y2="519.871" gradientUnits="userSpaceOnUse">
<stop stop-color="#0047FF"/>
<stop offset="1" stop-color="#051367"/>
</linearGradient>
<linearGradient id="paint31_linear_74_374" x1="1294.86" y1="-108.729" x2="836.1" y2="488.228" gradientUnits="userSpaceOnUse">
<stop stop-color="#0047FF"/>
<stop offset="1" stop-color="#051367"/>
</linearGradient>
<linearGradient id="paint32_linear_74_374" x1="1311.49" y1="-77.2489" x2="822.259" y2="455.87" gradientUnits="userSpaceOnUse">
<stop stop-color="#0047FF"/>
<stop offset="1" stop-color="#051367"/>
</linearGradient>
<linearGradient id="paint33_linear_74_374" x1="1324.39" y1="-45.4671" x2="812.162" y2="423.208" gradientUnits="userSpaceOnUse">
<stop stop-color="#0047FF"/>
<stop offset="1" stop-color="#051367"/>
</linearGradient>
<linearGradient id="paint34_linear_74_374" x1="1333.61" y1="-13.7849" x2="805.737" y2="390.647" gradientUnits="userSpaceOnUse">
<stop stop-color="#0047FF"/>
<stop offset="1" stop-color="#051367"/>
</linearGradient>
<linearGradient id="paint35_linear_74_374" x1="1339.26" y1="17.4096" x2="802.874" y2="358.574" gradientUnits="userSpaceOnUse">
<stop stop-color="#0047FF"/>
<stop offset="1" stop-color="#051367"/>
</linearGradient>
<linearGradient id="paint36_linear_74_374" x1="1341.5" y1="47.7415" x2="803.415" y2="327.351" gradientUnits="userSpaceOnUse">
<stop stop-color="#0047FF"/>
<stop offset="1" stop-color="#051367"/>
</linearGradient>
<linearGradient id="paint37_linear_74_374" x1="1340.53" y1="76.8776" x2="807.188" y2="297.334" gradientUnits="userSpaceOnUse">
<stop stop-color="#0047FF"/>
<stop offset="1" stop-color="#051367"/>
</linearGradient>
<linearGradient id="paint38_linear_74_374" x1="1336.54" y1="104.493" x2="813.965" y2="268.839" gradientUnits="userSpaceOnUse">
<stop stop-color="#0047FF"/>
<stop offset="1" stop-color="#051367"/>
</linearGradient>
</defs>
</svg>
