<svg width="20" height="20" viewBox="0 0 20 20" fill="none" xmlns="http://www.w3.org/2000/svg">
<path d="M10.0001 3.33334C6.31818 3.33334 3.33342 6.31811 3.33342 10C3.33342 13.6819 6.31818 16.6667 10.0001 16.6667C13.682 16.6667 16.6668 13.6819 16.6668 10C16.6668 6.31811 13.682 3.33334 10.0001 3.33334ZM1.66675 10C1.66675 5.39763 5.39771 1.66667 10.0001 1.66667C14.6025 1.66667 18.3334 5.39763 18.3334 10C18.3334 14.6024 14.6025 18.3333 10.0001 18.3333C5.39771 18.3333 1.66675 14.6024 1.66675 10Z" fill="#ABBCCD"/>
<path d="M10.0001 8.33334C10.4603 8.33334 10.8334 8.70644 10.8334 9.16667V14.1667C10.8334 14.6269 10.4603 15 10.0001 15C9.53985 15 9.16675 14.6269 9.16675 14.1667V9.16667C9.16675 8.70644 9.53985 8.33334 10.0001 8.33334Z" fill="#ABBCCD"/>
<path d="M11.2501 6.25001C11.2501 6.94036 10.6904 7.50001 10.0001 7.50001C9.30973 7.50001 8.75008 6.94036 8.75008 6.25001C8.75008 5.55965 9.30973 5.00001 10.0001 5.00001C10.6904 5.00001 11.2501 5.55965 11.2501 6.25001Z" fill="#ABBCCD"/>
</svg>
