<svg width="18" height="18" viewBox="0 0 18 18" fill="none" xmlns="http://www.w3.org/2000/svg">
<g filter="url(#filter0_f_74_87)">
<path fill-rule="evenodd" clip-rule="evenodd" d="M9 13C11.2091 13 13 11.2091 13 9C13 6.79086 11.2091 5 9 5C6.79086 5 5 6.79086 5 9C5 11.2091 6.79086 13 9 13ZM9 11.4C10.3255 11.4 11.4 10.3255 11.4 9C11.4 7.67452 10.3255 6.6 9 6.6C7.67452 6.6 6.6 7.67452 6.6 9C6.6 10.3255 7.67452 11.4 9 11.4Z" fill="#5C88F0"/>
</g>
<path fill-rule="evenodd" clip-rule="evenodd" d="M9 13C11.2091 13 13 11.2091 13 9C13 6.79086 11.2091 5 9 5C6.79086 5 5 6.79086 5 9C5 11.2091 6.79086 13 9 13ZM9 11.4C10.3255 11.4 11.4 10.3255 11.4 9C11.4 7.67452 10.3255 6.6 9 6.6C7.67452 6.6 6.6 7.67452 6.6 9C6.6 10.3255 7.67452 11.4 9 11.4Z" fill="#5C88F0"/>
<defs>
<filter id="filter0_f_74_87" x="0" y="0" width="18" height="18" filterUnits="userSpaceOnUse" color-interpolation-filters="sRGB">
<feFlood flood-opacity="0" result="BackgroundImageFix"/>
<feBlend mode="normal" in="SourceGraphic" in2="BackgroundImageFix" result="shape"/>
<feGaussianBlur stdDeviation="2.5" result="effect1_foregroundBlur_74_87"/>
</filter>
</defs>
</svg>
