<svg width="24" height="24" viewBox="0 0 24 24" fill="none" xmlns="http://www.w3.org/2000/svg">
<path d="M17 13.13V16.827H14.857V13.377C14.857 12.511 14.547 11.92 13.771 11.92C13.179 11.92 12.826 12.318 12.671 12.704C12.615 12.842 12.6 13.034 12.6 13.226V16.827H10.456C10.456 16.827 10.485 10.985 10.456 10.38H12.6V11.293L12.586 11.314H12.6V11.294C12.885 10.854 13.393 10.228 14.532 10.228C15.942 10.228 17 11.15 17 13.13ZM8.213 7.271C7.48 7.271 7 7.753 7 8.385C7 9.005 7.466 9.5 8.185 9.5H8.199C8.947 9.5 9.412 9.004 9.412 8.385C9.398 7.753 8.947 7.271 8.213 7.271ZM7.127 16.827H9.271V10.38H7.127V16.827Z" fill="#DFF6FF" fill-opacity="0.7"/>
<path d="M6 4C5.46957 4 4.96086 4.21071 4.58579 4.58579C4.21071 4.96086 4 5.46957 4 6V18C4 18.5304 4.21071 19.0391 4.58579 19.4142C4.96086 19.7893 5.46957 20 6 20H18C18.5304 20 19.0391 19.7893 19.4142 19.4142C19.7893 19.0391 20 18.5304 20 18V6C20 5.46957 19.7893 4.96086 19.4142 4.58579C19.0391 4.21071 18.5304 4 18 4H6ZM6 2H18C19.0609 2 20.0783 2.42143 20.8284 3.17157C21.5786 3.92172 22 4.93913 22 6V18C22 19.0609 21.5786 20.0783 20.8284 20.8284C20.0783 21.5786 19.0609 22 18 22H6C4.93913 22 3.92172 21.5786 3.17157 20.8284C2.42143 20.0783 2 19.0609 2 18V6C2 4.93913 2.42143 3.92172 3.17157 3.17157C3.92172 2.42143 4.93913 2 6 2V2Z" fill="#DFF6FF" fill-opacity="0.7"/>
</svg>
