<svg width="12" height="10" viewBox="0 0 12 10" fill="none" xmlns="http://www.w3.org/2000/svg">
<path d="M6.19522 0.528594C6.45557 0.268245 6.87768 0.268245 7.13803 0.528594L11.138 4.52859C11.2631 4.65362 11.3333 4.82319 11.3333 5C11.3333 5.17681 11.2631 5.34638 11.138 5.4714L7.13803 9.4714C6.87768 9.73175 6.45557 9.73175 6.19522 9.4714C5.93487 9.21105 5.93487 8.78894 6.19522 8.52859L9.05715 5.66667L1.33329 5.66667C0.965103 5.66667 0.666626 5.36819 0.666626 5C0.666626 4.63181 0.965103 4.33333 1.33329 4.33333L9.05715 4.33333L6.19522 1.4714C5.93487 1.21105 5.93487 0.788944 6.19522 0.528594Z" fill="#4D5474"/>
</svg>
