<svg width="18" height="16" viewBox="0 0 18 16" fill="none" xmlns="http://www.w3.org/2000/svg">
<path d="M16.6988 0.820988C16.4853 0.643356 16.2276 0.526949 15.9531 0.484158C15.6787 0.441367 15.3978 0.473795 15.1403 0.577988L1.69955 6.00424C1.41219 6.12251 1.16758 6.32536 0.998183 6.58588C0.828782 6.84639 0.742595 7.15225 0.751057 7.46289C0.759518 7.77352 0.862228 8.07424 1.04556 8.32514C1.22889 8.57605 1.48418 8.76528 1.77755 8.86774L4.4963 9.81349L6.0113 14.825C6.03206 14.8919 6.06211 14.9555 6.10055 15.014C6.10655 15.023 6.1148 15.029 6.1208 15.0387C6.165 15.1003 6.21837 15.1546 6.27905 15.2C6.29599 15.2133 6.31351 15.2258 6.33155 15.2375C6.40259 15.2846 6.48125 15.3191 6.56405 15.3395L6.5738 15.3402L6.5783 15.3425C6.62842 15.3526 6.67943 15.3576 6.73055 15.3575L6.74405 15.3552C6.82086 15.354 6.89701 15.3408 6.9698 15.3162C6.98705 15.3102 7.0013 15.3012 7.0178 15.2937C7.07225 15.2714 7.12386 15.2427 7.17155 15.2082C7.20954 15.176 7.24754 15.1437 7.28555 15.1115L9.31205 12.8742L12.3345 15.2157C12.6006 15.423 12.9281 15.5356 13.2653 15.536C13.6187 15.5356 13.9613 15.4136 14.2355 15.1907C14.5097 14.9677 14.6989 14.6572 14.7713 14.3112L17.2185 2.29849C17.2739 2.02823 17.2548 1.74801 17.1632 1.48778C17.0717 1.22754 16.9112 0.99707 16.6988 0.820988ZM7.02755 10.052C6.92368 10.1557 6.85272 10.2877 6.82355 10.4315L6.59105 11.5595L6.00305 9.61474L9.0518 8.02699L7.02755 10.052ZM13.254 14.03L9.6818 11.2625C9.53233 11.1471 9.34489 11.0924 9.15682 11.109C8.96876 11.1257 8.79389 11.2126 8.66705 11.3525L8.01755 12.0687L8.24705 10.9535L13.5593 5.64124C13.6853 5.51442 13.7619 5.34675 13.7753 5.16845C13.7886 4.99015 13.7378 4.81296 13.632 4.66881C13.5262 4.52466 13.3724 4.42304 13.1983 4.38228C13.0243 4.34152 12.8413 4.36429 12.6825 4.44649L5.0588 8.41549L2.26505 7.39324L15.7493 1.99999L13.254 14.03Z" fill="#00A5F5"/>
</svg>
