<svg width="18" height="18" viewBox="0 0 18 18" fill="none" xmlns="http://www.w3.org/2000/svg">
<path d="M12.5419 10.5451C12.3503 10.4467 11.3958 9.9791 11.2183 9.91582C11.0408 9.84902 10.9107 9.81738 10.7824 10.0143C10.6523 10.2094 10.2832 10.6436 10.1671 10.7754C10.0546 10.9055 9.94038 10.9213 9.74878 10.8246C8.60971 10.2551 7.86264 9.80859 7.11206 8.52012C6.91343 8.17734 7.31069 8.20195 7.68159 7.46191C7.74487 7.33184 7.71323 7.22109 7.66401 7.12266C7.61479 7.02422 7.22807 6.07148 7.06636 5.68301C6.90991 5.30508 6.74819 5.35781 6.63042 5.35078C6.51792 5.34375 6.3896 5.34375 6.25952 5.34375C6.12944 5.34375 5.92026 5.39297 5.74272 5.58457C5.56519 5.77969 5.06421 6.24902 5.06421 7.20176C5.06421 8.15449 5.75854 9.07734 5.85347 9.20742C5.9519 9.3375 7.21929 11.2922 9.16518 12.1342C10.3957 12.665 10.8773 12.7107 11.4925 12.6193C11.8669 12.5631 12.6386 12.1518 12.7986 11.6965C12.9585 11.243 12.9585 10.8545 12.9111 10.7736C12.8636 10.6875 12.7335 10.6383 12.5419 10.5451Z" fill="#67D449"/>
<path d="M16.2633 5.94844C15.866 5.00449 15.2965 4.15723 14.5705 3.42949C13.8445 2.70352 12.9972 2.13223 12.0515 1.73672C11.0847 1.33066 10.0582 1.125 8.99998 1.125H8.96483C7.89959 1.13027 6.86775 1.34121 5.89744 1.75605C4.96053 2.15684 4.12029 2.72637 3.40135 3.45234C2.6824 4.17832 2.11814 5.02207 1.72791 5.9625C1.32361 6.93633 1.1197 7.97168 1.12498 9.03691C1.13025 10.2568 1.42205 11.468 1.96873 12.5508V15.2227C1.96873 15.6691 2.33084 16.0312 2.77732 16.0312H5.45096C6.53377 16.5779 7.7449 16.8697 8.96483 16.875H9.00174C10.0547 16.875 11.076 16.6711 12.0375 16.2721C12.9779 15.8801 13.8234 15.3176 14.5476 14.5986C15.2736 13.8797 15.8449 13.0395 16.2439 12.1025C16.6588 11.1322 16.8697 10.1004 16.875 9.03516C16.8803 7.96465 16.6728 6.92578 16.2633 5.94844ZM13.6072 13.6477C12.375 14.8676 10.7402 15.5391 8.99998 15.5391H8.9701C7.91014 15.5338 6.85721 15.2701 5.92732 14.7744L5.77967 14.6953H3.30467V12.2203L3.22556 12.0727C2.72986 11.1428 2.46619 10.0898 2.46092 9.02988C2.45388 7.27734 3.12361 5.63203 4.35232 4.39277C5.57928 3.15352 7.21932 2.46797 8.97186 2.46094H9.00174C9.88065 2.46094 10.7332 2.63145 11.5365 2.96895C12.3205 3.29766 13.0236 3.77051 13.6283 4.3752C14.2312 4.97812 14.7058 5.68301 15.0346 6.46699C15.3756 7.2791 15.5461 8.14043 15.5426 9.02988C15.532 10.7807 14.8447 12.4207 13.6072 13.6477Z" fill="#67D449"/>
</svg>
