<svg width="26" height="22" viewBox="0 0 26 22" fill="none" xmlns="http://www.w3.org/2000/svg">
<path d="M18.0053 11.1419C16.9857 10.7161 16.1979 10.0301 15.6417 9.08387C15.0392 8.18494 14.738 7.09677 14.738 5.81935C14.738 4.11613 15.2709 2.72043 16.3369 1.63226C17.4029 0.544085 18.7237 0 20.2995 0C21.9679 0 23.3351 0.544085 24.4011 1.63226C25.467 2.72043 26 4.11613 26 5.81935C26 6.67096 25.9073 7.49892 25.7219 8.30323C25.4902 9.10753 25.0731 10.314 24.4706 11.9226L20.7861 22H15.2246L18.0053 11.1419ZM3.26738 11.1419C2.24777 10.7161 1.45989 10.0301 0.903744 9.08387C0.301249 8.18494 0 7.09677 0 5.81935C0 4.11613 0.532976 2.72043 1.59893 1.63226C2.66488 0.544085 3.98574 0 5.5615 0C7.22995 0 8.59715 0.544085 9.6631 1.63226C10.7291 2.72043 11.262 4.11613 11.262 5.81935C11.262 6.67096 11.1693 7.49892 10.984 8.30323C10.7522 9.10753 10.3351 10.314 9.73262 11.9226L6.04813 22H0.486631L3.26738 11.1419Z" fill="#5C88F0"/>
</svg>
